<svg width="676" height="424" viewBox="0 0 676 424" fill="none" xmlns="http://www.w3.org/2000/svg">
<g id="Calificar">
<g id="undraw_for_review_eqxk 1" clip-path="url(#clip0_430_18)">
<path id="Vector" d="M70.7204 138.06C68.6727 138.052 66.6808 137.392 65.033 136.177L51.3272 126.219C50.19 125.389 48.8184 124.941 47.4103 124.941C46.0022 124.941 44.6305 125.389 43.4934 126.219L29.7876 136.177C28.1347 137.377 26.144 138.024 24.1009 138.024C22.0578 138.024 20.0671 137.378 18.4141 136.177C16.7611 134.976 15.5306 133.283 14.8991 131.34C14.2675 129.397 14.2673 127.304 14.8984 125.36L20.1337 109.249C20.5713 107.91 20.5728 106.467 20.1377 105.128C19.7027 103.789 18.8537 102.622 17.713 101.796L4.00726 91.8388C2.35441 90.6377 1.12419 88.9443 0.492918 87.0011C-0.138352 85.0579 -0.138258 82.9647 0.493162 81.0216C1.12458 79.0785 2.35492 77.3851 4.00787 76.1842C5.66082 74.9832 7.65151 74.3364 9.69467 74.3363H26.6355C28.0434 74.3389 29.4158 73.8944 30.5549 73.0668C31.6939 72.2393 32.5408 71.0715 32.9735 69.7317L38.2088 53.62C38.84 51.6766 40.0703 49.9829 41.7233 48.7817C43.3764 47.5805 45.3673 46.9336 47.4106 46.9336C49.454 46.9336 51.4449 47.5805 53.098 48.7817C54.751 49.9829 55.9813 51.6766 56.6125 53.62L61.8471 69.7317C62.28 71.0715 63.127 72.2393 64.2661 73.0669C65.4053 73.8944 66.7778 74.3389 68.1858 74.3363H85.1266C87.1698 74.3364 89.1605 74.9832 90.8134 76.1842C92.4664 77.3851 93.6967 79.0785 94.3282 81.0216C94.9596 82.9648 94.9597 85.0579 94.3284 87.0011C93.6971 88.9443 92.4669 90.6377 90.8141 91.8388L77.1083 101.796C75.9674 102.622 75.1182 103.789 74.683 105.128C74.2478 106.467 74.2492 107.91 74.6869 109.249L79.9222 125.36C80.5766 127.302 80.5881 129.402 79.955 131.35C79.3218 133.299 78.0776 134.991 76.407 136.177C74.7594 137.392 72.7678 138.052 70.7204 138.06Z" fill="#6C63FF"/>
<path id="Vector_2" d="M209.607 138.06C207.56 138.052 205.568 137.392 203.92 136.177L190.215 126.219C189.077 125.391 187.705 124.944 186.297 124.944C184.89 124.944 183.518 125.391 182.38 126.219L168.674 136.177C167.021 137.377 165.031 138.024 162.988 138.024C160.945 138.025 158.954 137.378 157.301 136.177C155.648 134.976 154.418 133.283 153.786 131.34C153.155 129.397 153.155 127.304 153.786 125.36L159.02 109.249C159.458 107.91 159.459 106.467 159.024 105.128C158.589 103.789 157.74 102.622 156.6 101.796L142.894 91.8388C141.241 90.6377 140.011 88.9443 139.38 87.0011C138.748 85.0579 138.748 82.9648 139.38 81.0216C140.011 79.0785 141.242 77.3851 142.895 76.1842C144.548 74.9832 146.538 74.3364 148.581 74.3363H165.522C166.93 74.3389 168.303 73.8944 169.442 73.0669C170.581 72.2393 171.428 71.0715 171.86 69.7317L177.096 53.62C177.727 51.6766 178.957 49.9829 180.61 48.7817C182.263 47.5805 184.254 46.9336 186.297 46.9336C188.341 46.9336 190.332 47.5805 191.985 48.7817C193.638 49.9829 194.868 51.6766 195.499 53.62L200.735 69.7317C201.167 71.0715 202.014 72.2393 203.153 73.0668C204.292 73.8944 205.665 74.3389 207.073 74.3363H224.013C226.057 74.3364 228.047 74.9832 229.7 76.1842C231.353 77.3851 232.583 79.0785 233.215 81.0216C233.846 82.9648 233.846 85.0579 233.215 87.0011C232.584 88.9443 231.354 90.6377 229.701 91.8388L215.995 101.796C214.854 102.622 214.005 103.789 213.57 105.128C213.135 106.467 213.137 107.91 213.574 109.249L218.809 125.36C219.463 127.302 219.475 129.402 218.842 131.35C218.209 133.298 216.965 134.991 215.294 136.177C213.647 137.392 211.655 138.052 209.607 138.06Z" fill="#6C63FF"/>
<path id="Vector_3" d="M300.667 138.619C298.418 138.61 296.231 137.886 294.421 136.552C292.586 135.249 291.219 133.39 290.523 131.25C289.828 129.109 289.84 126.802 290.559 124.669L295.795 108.557C296.17 107.411 296.171 106.174 295.798 105.027C295.425 103.879 294.697 102.879 293.72 102.172L280.014 92.2133C278.198 90.8941 276.846 89.034 276.153 86.8995C275.459 84.7649 275.459 82.4656 276.153 80.3311C276.847 78.1966 278.198 76.3365 280.014 75.0173C281.83 73.6981 284.016 72.9877 286.261 72.9878H303.202C304.409 72.99 305.585 72.609 306.561 71.8996C307.537 71.1902 308.263 70.1891 308.634 69.0406L313.87 52.9294C314.563 50.7949 315.915 48.9348 317.73 47.6156C319.546 46.2964 321.733 45.5859 323.977 45.5859C326.221 45.5859 328.408 46.2964 330.224 47.6156C332.04 48.9348 333.391 50.7949 334.085 52.9294L339.32 69.0406C339.69 70.1891 340.416 71.1901 341.392 71.8995C342.369 72.6089 343.545 72.99 344.752 72.9878H361.693C363.937 72.9879 366.124 73.6984 367.94 75.0176C369.755 76.3368 371.107 78.1969 371.8 80.3313C372.494 82.4657 372.494 84.7649 371.8 86.8994C371.107 89.0339 369.756 90.8941 367.94 92.2133L354.234 102.172C353.257 102.879 352.529 103.879 352.156 105.026C351.783 106.174 351.784 107.41 352.159 108.557L357.394 124.669C358.088 126.803 358.088 129.103 357.394 131.237C356.7 133.372 355.349 135.232 353.533 136.551C351.717 137.87 349.531 138.581 347.286 138.581C345.042 138.581 342.855 137.87 341.039 136.551L327.334 126.594C326.359 125.883 325.183 125.499 323.977 125.499C322.77 125.499 321.594 125.883 320.619 126.594L306.913 136.551C305.103 137.886 302.916 138.61 300.667 138.619ZM323.977 120.581C326.222 120.582 328.409 121.294 330.223 122.617L343.929 132.574C344.904 133.283 346.08 133.665 347.286 133.666C348.493 133.666 349.668 133.284 350.644 132.575C351.62 131.866 352.346 130.866 352.719 129.719C353.092 128.571 353.092 127.335 352.719 126.188L347.484 110.077C346.786 107.943 346.784 105.642 347.478 103.506C348.172 101.371 349.526 99.511 351.345 98.1947L365.05 88.2363C366.026 87.5273 366.753 86.5275 367.125 85.3803C367.498 84.2332 367.498 82.9975 367.125 81.8503C366.753 80.7031 366.026 79.7034 365.05 78.9944C364.075 78.2853 362.899 77.9035 361.693 77.9034H344.752C342.507 77.9076 340.318 77.1987 338.501 75.8789C336.685 74.5591 335.335 72.6967 334.645 70.56L329.409 54.4487C329.037 53.3014 328.31 52.3016 327.334 51.5925C326.358 50.8835 325.183 50.5016 323.977 50.5016C322.77 50.5016 321.595 50.8835 320.619 51.5925C319.643 52.3016 318.917 53.3014 318.544 54.4487L313.309 70.56C312.619 72.6967 311.269 74.5592 309.452 75.879C307.636 77.1988 305.447 77.9076 303.202 77.9034H286.261C285.055 77.9033 283.879 78.2851 282.903 78.9941C281.927 79.703 281.201 80.7028 280.828 81.85C280.455 82.9972 280.455 84.233 280.828 85.3802C281.201 86.5274 281.927 87.5272 282.903 88.2363L296.609 98.1947C298.428 99.5112 299.782 101.371 300.476 103.507C301.17 105.642 301.168 107.943 300.47 110.077L295.234 126.188C294.861 127.335 294.861 128.571 295.234 129.718C295.607 130.866 296.333 131.865 297.309 132.574C298.285 133.283 299.461 133.665 300.667 133.665C301.873 133.665 303.048 133.283 304.024 132.574L317.73 122.617C319.545 121.294 321.732 120.582 323.977 120.581Z" fill="#3F3D56"/>
<path id="Vector_4" d="M558.531 163.326L524.86 192.271L472.089 237.619L464.956 243.752C464.304 244.308 463.768 244.988 463.38 245.752C462.992 246.517 462.76 247.352 462.698 248.207C462.605 249.448 462.868 250.69 463.456 251.788C463.679 252.202 463.947 252.59 464.255 252.946L468.081 257.401L473.905 264.176C474.013 264.296 474.114 264.408 474.229 264.522C475.392 265.686 476.953 266.369 478.598 266.432C480.243 266.496 481.851 265.935 483.101 264.864L542.94 213.447L576.682 184.446C577.99 183.316 578.797 181.714 578.926 179.99C579.054 178.266 578.495 176.562 577.369 175.25L575.333 172.883L567.725 164.027C567.168 163.376 566.488 162.842 565.724 162.454C564.96 162.067 564.127 161.834 563.273 161.769C562.419 161.704 561.561 161.808 560.747 162.075C559.933 162.342 559.18 162.767 558.531 163.326Z" fill="#6C63FF"/>
<path id="Vector_5" d="M584.191 138.975C613.838 138.975 637.872 114.941 637.872 85.2942C637.872 55.647 613.838 31.6133 584.191 31.6133C554.543 31.6133 530.51 55.647 530.51 85.2942C530.51 114.941 554.543 138.975 584.191 138.975Z" fill="#6C63FF"/>
<path id="Vector_6" d="M588.135 293.754V417.136C588.136 418.864 588.824 420.522 590.046 421.744C591.268 422.966 592.926 423.654 594.654 423.655H609.459C611.187 423.654 612.845 422.966 614.067 421.744C615.289 420.522 615.977 418.864 615.978 417.136V293.754C615.977 292.025 615.289 290.368 614.067 289.146C612.845 287.923 611.187 287.236 609.459 287.234H594.654C592.926 287.236 591.268 287.923 590.046 289.146C588.824 290.368 588.136 292.025 588.135 293.754Z" fill="#2F2E41"/>
<path id="Vector_7" d="M556.852 293.754V417.136C556.852 417.992 557.02 418.84 557.348 419.631C557.675 420.422 558.156 421.141 558.761 421.746C559.366 422.351 560.085 422.832 560.876 423.159C561.667 423.487 562.515 423.655 563.371 423.655H578.176C579.904 423.654 581.561 422.966 582.784 421.744C584.006 420.522 584.694 418.864 584.695 417.136V293.754C584.694 292.025 584.006 290.368 582.784 289.146C581.562 287.923 579.904 287.236 578.176 287.234H563.371C562.515 287.234 561.667 287.403 560.876 287.731C560.085 288.058 559.366 288.538 558.761 289.144C558.156 289.749 557.675 290.468 557.348 291.259C557.02 292.05 556.852 292.898 556.852 293.754Z" fill="#2F2E41"/>
<path id="Vector_8" d="M562.86 310.655C557.289 310.65 551.792 309.391 546.774 306.97C541.757 304.55 537.349 301.031 533.878 296.674C530.406 292.317 527.961 287.235 526.722 281.804C525.483 276.373 525.483 270.732 526.722 265.301L543.469 191.89C543.48 184.297 545.584 176.854 549.549 170.378C553.515 163.903 559.188 158.645 565.946 155.184C572.704 151.722 580.286 150.19 587.858 150.755C595.43 151.321 602.699 153.963 608.868 158.391C614.2 162.219 618.546 167.259 621.547 173.097C624.548 178.935 626.119 185.402 626.129 191.966C626.152 192.629 628.487 260.901 629.466 292.45C629.533 294.608 629.172 296.758 628.405 298.777C627.638 300.796 626.48 302.643 624.997 304.213C623.514 305.783 621.735 307.044 619.763 307.924C617.791 308.804 615.664 309.286 613.506 309.342L564.055 310.637C563.656 310.649 563.257 310.655 562.86 310.655Z" fill="#2F2E41"/>
<path id="Vector_9" d="M538.858 109.025L538.914 107.019C535.182 106.915 531.892 106.681 529.419 104.875C528.719 104.333 528.142 103.648 527.73 102.864C527.318 102.08 527.08 101.217 527.031 100.333C526.987 99.7923 527.069 99.2493 527.27 98.7458C527.47 98.2422 527.784 97.7917 528.187 97.4293C529.828 96.0433 532.469 96.4919 534.394 97.3744L536.054 98.1355L532.871 74.875L530.883 75.1473L533.591 94.9335C530.975 94.1646 528.552 94.4956 526.892 95.8973C526.255 96.4537 525.755 97.1499 525.431 97.9315C525.108 98.7131 524.969 99.559 525.026 100.403C525.085 101.591 525.403 102.752 525.957 103.804C526.511 104.856 527.289 105.775 528.236 106.495C531.413 108.816 535.541 108.932 538.858 109.025Z" fill="#2F2E41"/>
<path id="Vector_10" d="M555.158 76.8516H544.354V78.8576H555.158V76.8516Z" fill="#2F2E41"/>
<path id="Vector_11" d="M598.215 173.351L600.06 217.714L602.939 287.234L603.33 296.632C603.362 297.489 603.563 298.331 603.923 299.11C604.283 299.888 604.794 300.587 605.426 301.166C606.343 302.008 607.481 302.572 608.706 302.791C609.17 302.872 609.641 302.902 610.11 302.881L615.978 302.64L624.905 302.269C625.066 302.259 625.216 302.249 625.377 302.229C627.012 302.038 628.514 301.237 629.584 299.985C630.653 298.733 631.211 297.124 631.144 295.479L627.884 216.651L626.039 172.197C625.963 170.47 625.206 168.844 623.933 167.675C622.66 166.505 620.975 165.888 619.248 165.959L616.129 166.089L604.464 166.57C603.608 166.604 602.767 166.807 601.989 167.166C601.212 167.525 600.513 168.034 599.932 168.664C599.352 169.294 598.901 170.032 598.607 170.836C598.312 171.641 598.179 172.495 598.215 173.351Z" fill="#6C63FF"/>
<path id="Vector_12" d="M593.711 177.103V211.206C593.712 212.904 594.376 214.535 595.562 215.751C596.748 216.967 598.362 217.672 600.06 217.715C600.116 217.724 600.173 217.727 600.231 217.725H624.303C624.69 217.724 625.076 217.687 625.456 217.615C626.323 217.463 627.149 217.136 627.884 216.652C628.785 216.057 629.525 215.248 630.037 214.298C630.55 213.348 630.82 212.285 630.823 211.206V177.103C630.817 172.183 628.86 167.467 625.381 163.988C621.903 160.51 617.186 158.553 612.267 158.547C610.993 158.544 609.722 158.675 608.475 158.938C604.305 159.814 600.562 162.097 597.874 165.404C595.186 168.711 593.716 172.841 593.711 177.103Z" fill="#2F2E41"/>
<path id="Vector_13" d="M523.379 191.337C523.628 192.147 524.033 192.9 524.573 193.553L539.819 212.179C540.091 212.524 540.404 212.834 540.752 213.102C541.916 214.051 543.373 214.569 544.876 214.567C546.378 214.565 547.834 214.044 548.997 213.092L575.386 191.497C577.272 189.953 578.835 188.053 579.986 185.905C581.137 183.758 581.854 181.404 582.096 178.979C582.337 176.554 582.099 174.106 581.394 171.773C580.69 169.44 579.533 167.269 577.989 165.383C576.445 163.498 574.545 161.935 572.397 160.783C570.249 159.632 567.896 158.915 565.471 158.674C563.046 158.432 560.597 158.67 558.264 159.375C555.932 160.08 553.76 161.237 551.875 162.781L525.486 184.376C524.487 185.198 523.753 186.298 523.379 187.537C523.004 188.776 523.004 190.098 523.379 191.337Z" fill="#2F2E41"/>
<path id="Vector_14" d="M575.971 53.7291C567.028 57.4523 557.397 61.5714 547.486 60.4301C539.367 59.4951 531.565 54.7481 529.695 46.3595C527.908 38.3437 531.602 29.9818 537.49 24.6124C544.15 18.5387 553.344 15.6002 562.12 14.3608C567.421 13.612 573.312 13.5636 578.2 16.0452C582.113 18.0316 585.63 21.6233 586.235 26.1382L589.995 25.1199C587.338 20.6154 588.609 15.156 591.549 11.1097C595.085 6.24468 601.019 4.21862 606.847 4.04938C618.701 3.70518 630.829 9.20577 640.374 15.8635C649.775 22.4442 657.513 31.1245 662.975 41.2162C669.1 52.552 672.473 66.1072 670.413 78.9701C668.316 92.0618 659.847 104.485 646.738 108.426C644.257 109.171 645.314 113.067 647.811 112.317C660.325 108.555 669.569 97.7184 673.119 85.3607C677.199 71.1599 674.393 55.6075 668.134 42.477C662.585 30.999 654.303 21.059 644.015 13.5299C633.731 5.94922 620.402 -0.148689 607.411 0.00276128C599.947 0.0897613 592.718 2.75014 588.199 8.89084C584.342 14.1336 583.104 21.3821 586.511 27.1565C587.446 28.7417 590.55 28.2218 590.27 26.1382C588.854 15.573 578.63 10.1417 568.784 9.9072C563.227 9.88592 557.699 10.7034 552.386 12.332C547.47 13.6786 542.804 15.8112 538.569 18.6473C530.618 24.1515 525.025 32.9411 525.249 42.8392C525.472 52.7138 532.124 60.2988 541.344 63.2192C553.512 67.0732 565.851 62.28 577.043 57.6201C577.549 57.4626 577.976 57.1185 578.238 56.6576C578.5 56.1967 578.576 55.6535 578.452 55.1382C578.308 54.6238 577.966 54.1872 577.501 53.9234C577.036 53.6596 576.486 53.5897 575.971 53.7291Z" fill="#2F2E41"/>
<path id="Vector_15" d="M412.169 251.525C409.92 251.516 407.733 250.792 405.923 249.458C404.088 248.156 402.721 246.296 402.025 244.156C401.33 242.015 401.342 239.708 402.061 237.575L407.297 221.464C407.672 220.317 407.673 219.08 407.3 217.933C406.927 216.785 406.199 215.786 405.222 215.078L391.516 205.12C389.7 203.8 388.348 201.94 387.655 199.806C386.961 197.671 386.961 195.372 387.655 193.237C388.349 191.103 389.7 189.243 391.516 187.924C393.332 186.604 395.518 185.894 397.763 185.894H414.704C415.911 185.896 417.087 185.515 418.063 184.806C419.039 184.096 419.765 183.095 420.136 181.947L425.372 165.836C426.065 163.701 427.417 161.841 429.232 160.522C431.048 159.203 433.235 158.492 435.479 158.492C437.723 158.492 439.91 159.203 441.726 160.522C443.542 161.841 444.893 163.701 445.587 165.836L450.822 181.947C451.192 183.095 451.918 184.096 452.894 184.806C453.871 185.515 455.047 185.896 456.254 185.894H473.195C475.439 185.894 477.626 186.605 479.442 187.924C481.257 189.243 482.609 191.103 483.302 193.238C483.996 195.372 483.996 197.671 483.302 199.806C482.609 201.94 481.258 203.8 479.442 205.12L465.736 215.078C464.759 215.785 464.031 216.785 463.658 217.933C463.285 219.08 463.286 220.317 463.661 221.464L468.896 237.575C469.59 239.71 469.59 242.009 468.896 244.143C468.202 246.278 466.851 248.138 465.035 249.457C463.219 250.776 461.033 251.487 458.788 251.487C456.544 251.487 454.357 250.776 452.541 249.457L438.836 239.5C437.861 238.789 436.686 238.406 435.479 238.406C434.272 238.406 433.096 238.789 432.121 239.5L418.415 249.457C416.605 250.792 414.418 251.516 412.169 251.525ZM435.479 233.488C437.724 233.488 439.911 234.201 441.725 235.523L455.431 245.48C456.406 246.189 457.582 246.572 458.788 246.572C459.994 246.572 461.17 246.19 462.146 245.481C463.122 244.772 463.848 243.772 464.221 242.625C464.594 241.478 464.594 240.242 464.221 239.094L458.986 222.983C458.288 220.849 458.286 218.548 458.98 216.413C459.674 214.277 461.028 212.417 462.847 211.101L476.552 201.143C477.528 200.434 478.254 199.434 478.627 198.287C479 197.139 479 195.904 478.627 194.757C478.254 193.609 477.528 192.61 476.552 191.901C475.576 191.192 474.401 190.81 473.195 190.81H456.254C454.009 190.814 451.82 190.105 450.003 188.785C448.187 187.465 446.836 185.603 446.147 183.466L440.911 167.355C440.538 166.208 439.812 165.208 438.836 164.499C437.86 163.79 436.685 163.408 435.479 163.408C434.272 163.408 433.097 163.79 432.121 164.499C431.145 165.208 430.419 166.208 430.046 167.355L424.811 183.466C424.121 185.603 422.771 187.465 420.954 188.785C419.138 190.105 416.949 190.814 414.704 190.81H397.763C396.557 190.81 395.381 191.191 394.405 191.9C393.429 192.609 392.703 193.609 392.33 194.756C391.957 195.903 391.957 197.139 392.33 198.286C392.703 199.434 393.429 200.433 394.405 201.143L408.111 211.101C409.93 212.417 411.284 214.278 411.978 216.413C412.672 218.548 412.67 220.849 411.972 222.983L406.736 239.094C406.363 240.242 406.363 241.477 406.736 242.625C407.109 243.772 407.835 244.772 408.811 245.481C409.787 246.19 410.962 246.571 412.169 246.571C413.375 246.571 414.55 246.189 415.526 245.48L429.232 235.523C431.047 234.201 433.234 233.488 435.479 233.488Z" fill="#3F3D56"/>
</g>
</g>
<defs>
<clipPath id="clip0_430_18">
<rect width="675.033" height="423.655" fill="white"/>
</clipPath>
</defs>
</svg>
